<svg id="Layer_1" xmlns="http://www.w3.org/2000/svg" viewBox="0 0 90.5 75"><style>.st0{fill:#fff}</style><path class="st0" d="M15.2 34.9c1.3.3 2.8.4 5.1.4 8 0 13-4.5 13-11.9 0-6.8-4.3-10.8-11.9-10.8-3 0-5.1.2-6.2.5v21.8zM.2 1.5C4.8.7 11.4 0 20.6 0c9.3 0 16 2 20.4 5.9 4.4 3.7 7.1 9.8 7.1 17S46 36.3 41.9 40.4c-5.2 5.2-12.8 7.8-21.7 7.8-2 0-3.8-.1-5.2-.4v26.4H0V1.5h.2zM56.8 60.7c3.1 1.8 8.1 3.6 13.2 3.6 5.5 0 8.3-2.5 8.3-6.3 0-3.6-2.5-5.7-8.8-8.1C60.8 46.5 55 41.2 55 32.7c0-9.9 7.6-17.3 19.9-17.3 6 0 10.3 1.3 13.4 2.9l-2.6 10.5c-2-1.1-5.8-2.7-10.9-2.7s-7.6 2.7-7.6 5.6c0 3.7 2.9 5.3 9.7 8.2 9.3 3.8 13.6 9.1 13.6 17.2 0 9.7-6.7 17.9-21.1 17.9-6 0-11.9-1.8-14.9-3.6l2.3-10.7z"/></svg>