<svg id="Layer_1" xmlns="http://www.w3.org/2000/svg" viewBox="0 0 223.1 106.5"><style>.st0{fill:#fff}</style><path class="st0" d="M44.7 35.6c7 0 11.6 1.3 13.9 3.9 2.3 2.6 2.9 7 1.7 13.2-1.3 6.5-3.7 11.2-7.3 13.9-3.6 2.8-9.1 4.2-16.5 4.2H25.3l6.8-35.2h12.6zM0 106.5h18.3l4.3-22.4h15.7c6.9 0 12.6-.7 17.1-2.2s8.5-3.9 12.2-7.3c3.1-2.8 5.6-5.9 7.5-9.3s3.3-7.2 4-11.3c1.9-10 .5-17.7-4.4-23.3s-12.6-8.3-23.2-8.3H16.4L0 106.5zM92.6 0h18.2l-4.3 22.4h16.2c10.2 0 17.2 1.8 21.1 5.3 3.9 3.6 5 9.3 3.5 17.3l-7.6 39.2h-18.5l7.2-37.2c.8-4.2.5-7.1-.9-8.7-1.4-1.5-4.5-2.3-9.1-2.3h-14.5l-9.4 48.2H76.3L92.6 0zM187.7 35.6c7 0 11.6 1.3 13.9 3.9 2.3 2.6 2.9 7 1.7 13.2-1.3 6.5-3.7 11.2-7.3 13.9-3.6 2.8-9.1 4.2-16.5 4.2h-11.1l6.8-35.2h12.5zM143 106.5h18.3l4.3-22.4h15.7c6.9 0 12.6-.7 17.1-2.2s8.5-3.9 12.2-7.3c3.1-2.8 5.6-5.9 7.5-9.3s3.3-7.2 4-11.3c1.9-10 .5-17.7-4.4-23.3s-12.6-8.3-23.2-8.3h-35.2L143 106.5z"/></svg>