<svg id="Layer_1" xmlns="http://www.w3.org/2000/svg" viewBox="0 0 79.2 90"><style>.st0{fill:#fff}</style><path class="st0" d="M26.6 36.7h13.1V26.5h-14l.9 10.2zM0 0l7.2 81 32.4 9L72 81l7.2-81H0zm65.9 75.8l-26.2 7.3V72.8l-20.4-5.6-1.4-16h10l.7 8.3 11.1 3V46.6H17.5l-2.7-30h24.9V6.7h32.4l-6.2 69.1z"/><path d="M51.9 46.6H39.7v15.9l11.1-3 1.1-12.9zm-12.2-40v9.9h24.9l-.9 9.9h-24v10.2h23.1l-2.7 30.5-20.4 5.6V83l26.2-7.3 6.2-69.2-32.4.1z" opacity=".8" fill="#fff"/><g opacity=".2"><path class="st0" d="M39.7 16.6H14.8l2.7 30h22.2v-9.9H26.6l-.9-10.2h14zM39.7 62.5l-11.1-3-.7-8.3h-10l1.4 16 20.4 5.6z"/></g></svg>