<svg id="Layer_1" xmlns="http://www.w3.org/2000/svg" viewBox="0 0 110.1 74.8"><style>.st0{fill:#fff}</style><path class="st0" d="M3.1 58.7c2.9 2.1 7 3.2 10.5 3.4 3.7.3 7.9 0 10.8-2.7 2.7-2.7 3.6-6.8 3.9-10.5.4-3.8.5-7.6.5-11.3V16.3 3.7.6c0-.6 1.1-.3 1.6-.3h12.3c.6 0 .4.4.4 1V40.4c-.2 8.2-.4 17.3-4.8 24.5-3 4.8-7.9 7.8-13.4 9-6.1 1.3-12.9 1.3-18.8-.6C5.3 73-.3 71 0 70.1c.3-1.2.7-2.4 1-3.5.7-2.6 1.4-5.3 2.1-7.9 1 .7 0 0 0 0zM101.2 19.6c-2.6-2.6-6.7-4.3-10.1-5.5-4.2-1.4-8.6-2.1-13-1.5-3.2.5-6.5 1.9-7.7 5.1-1.4 3.9.2 7.4 3.7 9.3s7.6 2.8 11.4 3.8c4.3 1.1 8.7 2.3 12.8 4.2 3.7 1.7 7.1 4.1 9.2 7.6 2.2 3.5 2.7 7.7 2.5 11.8-.5 8.4-5.5 15-13.4 18-8.5 3.2-18.5 2.8-27.2.6-4.3-1.1-8.6-2.7-12.5-4.8-.4-.2-4.9-2.7-4.7-3 .2-.4.4-.8.7-1.3 1.8-3.6 3.7-7.2 5.5-10.7 0-.1.1-.2.1-.3 2.6 2.6 6.6 4.4 10 5.8 4.1 1.7 8.5 2.9 13 3.1 5.3.3 13.5-.5 13.5-7.5 0-4.2-3.7-6.4-7.2-7.8-4-1.6-8.2-2.6-12.3-3.8-7.5-2.1-16.4-5.2-19.2-13.2-2.7-7.7-.2-17.2 5.8-22.7C68.6.9 78-.6 86.4.2c4.3.4 8.5 1.5 12.5 3.2 1 .4 9.1 4.1 8.7 4.9-1.9 3.5-3.8 6.9-5.7 10.4-.4.3-.6.6-.7.9-.5-.5 0 0 0 0z"/></svg>